<?xml version="1.0" encoding="utf-8"?>
<!-- Generator: Adobe Illustrator 16.0.0, SVG Export Plug-In . SVG Version: 6.00 Build 0)  -->
<!DOCTYPE svg PUBLIC "-//W3C//DTD SVG 1.1//EN" "http://www.w3.org/Graphics/SVG/1.1/DTD/svg11.dtd">
<svg version="1.1" id="Layer_1" xmlns="http://www.w3.org/2000/svg" xmlns:xlink="http://www.w3.org/1999/xlink" x="0px" y="0px"
	 width="312.494px" height="312.494px" viewBox="0 0 312.494 312.494" enable-background="new 0 0 312.494 312.494"
	 xml:space="preserve">
<circle fill="#FFFFFF" fill-opacity="0.5" cx="156.247" cy="156.247" r="156.247"/>
<circle id="grey" fill="#8C8C8C" cx="156.247" cy="156.247" r="55.103"/>
<path id="red" fill="#BF4C4C" d="M156.247,45.281c8.987,0,17.725,1.082,26.098,3.107l10.216-38.128
	c-11.631-2.883-23.792-4.422-36.314-4.422c-12.522,0-24.683,1.54-36.314,4.422l10.216,38.128
	C138.522,46.363,147.26,45.281,156.247,45.281z"/>
<path id="red2" fill="#BF6969" d="M156.247,50.165c-8.55,0-16.864,1.024-24.833,2.942l11.932,44.531
	c4.156-0.91,8.472-1.394,12.901-1.394c4.43,0,8.745,0.484,12.901,1.394l11.932-44.531C173.111,51.189,164.797,50.165,156.247,50.165
	z"/>
<path id="magenta2" fill="#BF6994" d="M115.773,111.94c3.145-2.866,6.641-5.443,10.476-7.657c3.836-2.216,7.815-3.954,11.87-5.244
	l-11.932-44.53c-16.293,4.822-30.966,13.455-42.975,24.87L115.773,111.94z"/>
<path id="magenta" fill="#B33F7A" d="M124.923,49.79l-10.216-38.129c-11.514,3.32-22.816,8.066-33.661,14.328
	C70.202,32.25,60.44,39.665,51.809,47.975l27.951,27.951C92.366,63.915,107.791,54.84,124.923,49.79z"/>
<path id="violet2" fill="#BF69BF" d="M98.98,138.182c1.291-4.054,3.029-8.034,5.244-11.869c2.215-3.836,4.792-7.332,7.658-10.476
	l-32.56-32.561c-11.403,12.015-20.023,26.69-24.833,42.984L98.98,138.182z"/>
<path id="violet" fill="#B33FB3" d="M75.867,79.822L47.916,51.871C39.605,60.502,32.19,70.265,25.93,81.109
	c-6.261,10.844-11.008,22.146-14.328,33.659l38.167,10.227C54.806,107.862,63.869,92.436,75.867,79.822z"/>
<path id="indigo2" fill="#9469BF" d="M96.304,156.247c0-4.429,0.484-8.745,1.394-12.901l-44.585-11.947
	c-1.921,7.974-2.946,16.293-2.946,24.848c0,8.555,1.025,16.875,2.946,24.849l44.585-11.947
	C96.788,164.992,96.304,160.676,96.304,156.247z"/>
<path id="indigo" fill="#793FB3" d="M45.282,156.246c0-8.992,1.083-17.734,3.111-26.112l-38.074-10.202
	c-2.882,11.631-4.422,23.792-4.422,36.314c0,12.522,1.54,24.683,4.422,36.314l38.074-10.202
	C46.365,173.981,45.282,165.238,45.282,156.246z"/>
<path id="blue" fill="#4848B3" d="M49.808,187.627l-38.202,10.236c3.32,11.514,8.066,22.814,14.328,33.66
	c6.261,10.844,13.675,20.605,21.987,29.238l28.017-28.017C63.934,220.149,54.862,204.741,49.808,187.627z"/>
<path id="blue2" fill="#7373BF" d="M111.885,196.797c-2.866-3.146-5.442-6.643-7.658-10.477c-2.214-3.836-3.953-7.816-5.243-11.871
	l-44.457,11.913c4.827,16.275,13.457,30.933,24.864,42.929L111.885,196.797z"/>
<path id="azure2" fill="#6993BF" d="M138.108,213.58c-4.054-1.289-8.034-3.029-11.87-5.243c-3.836-2.215-7.332-4.792-10.476-7.657
	l-32.489,32.489c12.002,11.392,26.66,20.008,42.936,24.821L138.108,213.58z"/>
<path id="azure" fill="#3F78B3" d="M79.819,236.623l-28.022,28.021c8.632,8.311,18.394,15.725,29.238,21.986
	c10.844,6.262,22.146,11.008,33.66,14.328l10.249-38.25C107.83,257.668,92.421,248.61,79.819,236.623z"/>
<path id="cyan2" fill="#74B3B3" d="M181.048,259.394l-11.9-44.412c-4.156,0.909-8.472,1.394-12.901,1.394
	c-4.43,0-8.745-0.484-12.901-1.394l-11.9,44.412c7.959,1.913,16.263,2.935,24.802,2.935
	C164.786,262.328,173.089,261.308,181.048,259.394z"/>
<path id="cyan" fill="#32A6A6" d="M156.248,267.212c-8.976,0-17.703-1.079-26.066-3.1l-10.249,38.247
	c11.631,2.883,23.792,4.422,36.314,4.422c12.522,0,24.683-1.539,36.314-4.422l-10.249-38.247
	C173.949,266.133,165.223,267.212,156.248,267.212z"/>
<path id="teal" fill="#3AA66E" d="M187.541,262.712l10.249,38.247c11.513-3.32,22.815-8.066,33.659-14.328
	c10.845-6.262,20.606-13.674,29.238-21.986l-28.017-28.017C220.067,248.615,204.656,257.673,187.541,262.712z"/>
<path id="teal2" fill="#62B389" d="M196.722,200.68c-3.145,2.865-6.641,5.443-10.476,7.657c-3.837,2.215-7.815,3.953-11.87,5.244
	l11.9,44.411c16.276-4.812,30.936-13.427,42.94-24.818L196.722,200.68z"/>
<path id="green2" fill="#6BB36B" d="M213.515,174.438c-1.291,4.054-3.029,8.035-5.244,11.871c-2.215,3.836-4.792,7.33-7.658,10.476
	l32.499,32.499c11.406-11.998,20.034-26.655,24.86-42.933L213.515,174.438z"/>
<path id="green" fill="#42A642" d="M262.691,187.615c-5.053,17.115-14.124,32.525-26.125,45.122l28.013,28.013
	c8.311-8.633,15.725-18.395,21.986-29.238c6.261-10.846,11.008-22.146,14.328-33.66L262.691,187.615z"/>
<path id="lime2" fill="#91B362" d="M216.313,156.31c0,4.429-0.484,8.745-1.394,12.901l44.457,11.912
	c1.926-7.982,2.954-16.312,2.954-24.877c0-8.523-1.017-16.812-2.924-24.758l-44.486,11.92
	C215.829,147.565,216.313,151.881,216.313,156.31z"/>
<path id="lime" fill="#76A632" d="M302.297,119.996l-38.173,10.229c2.015,8.35,3.089,17.062,3.089,26.022
	c0,9.002-1.085,17.755-3.119,26.142l38.202,10.236c2.882-11.631,4.422-23.792,4.422-36.314
	C306.719,143.788,305.179,131.627,302.297,119.996z"/>
<path id="gold" fill="#CCAF1F" d="M262.722,124.982l38.167-10.227c-3.319-11.514-8.066-22.815-14.327-33.661
	c-6.261-10.844-13.675-20.605-21.987-29.237l-27.956,27.956C248.619,92.425,257.684,107.851,262.722,124.982z"/>
<path id="gold2" fill="#CCB952" d="M200.609,115.823c2.866,3.145,5.443,6.641,7.658,10.477c2.214,3.836,3.954,7.815,5.244,11.87
	l44.492-11.922c-4.812-16.293-13.434-30.967-24.838-42.98L200.609,115.823z"/>
<path id="orange2" fill="#BF8A56" d="M186.316,54.513l-11.931,44.526c4.054,1.291,8.034,3.029,11.87,5.244
	c3.836,2.215,7.332,4.792,10.476,7.658l32.555-32.556C217.28,67.97,202.608,59.336,186.316,54.513z"/>
<path id="orange" fill="#CC843D" d="M232.741,75.931l27.956-27.956c-8.631-8.312-18.393-15.726-29.237-21.987
	c-10.845-6.261-22.146-11.008-33.661-14.327l-10.217,38.132C204.712,54.844,220.135,63.92,232.741,75.931z"/>
</svg>
